<svg xmlns="http://www.w3.org/2000/svg" viewBox="0 0 32 32">
  <defs>
    <linearGradient id="brain-gradient" x1="0%" y1="0%" x2="100%" y2="100%">
      <stop offset="0%" style="stop-color:#00ff00;stop-opacity:1" />
      <stop offset="50%" style="stop-color:#00ffff;stop-opacity:1" />
      <stop offset="100%" style="stop-color:#ffff00;stop-opacity:1" />
    </linearGradient>
  </defs>
  
  <!-- Brain icon -->
  <circle cx="16" cy="16" r="14" fill="url(#brain-gradient)" opacity="0.1"/>
  <path d="M8 12c0-4.4 3.6-8 8-8s8 3.6 8 8c0 2.2-0.9 4.2-2.3 5.7 1.1 1 1.8 2.4 1.8 4 0 3-2.5 5.5-5.5 5.5-1.4 0-2.7-0.5-3.7-1.4-0.8 0.9-1.9 1.4-3.2 1.4-2.2 0-4-1.8-4-4 0-1.1 0.4-2.1 1.1-2.9C8.5 16.8 8 14.5 8 12z" 
        fill="none" stroke="url(#brain-gradient)" stroke-width="2"/>
  
  <!-- Neural connections -->
  <circle cx="12" cy="10" r="1.5" fill="#00ff00"/>
  <circle cx="20" cy="12" r="1.5" fill="#00ffff"/>
  <circle cx="16" cy="16" r="1.5" fill="#ffff00"/>
  <circle cx="10" cy="20" r="1.5" fill="#00ff00"/>
  <circle cx="22" cy="20" r="1.5" fill="#00ffff"/>
  
  <!-- Connections -->
  <line x1="12" y1="10" x2="16" y2="16" stroke="#00ff00" stroke-width="1" opacity="0.6"/>
  <line x1="20" y1="12" x2="16" y2="16" stroke="#00ffff" stroke-width="1" opacity="0.6"/>
  <line x1="16" y1="16" x2="10" y2="20" stroke="#ffff00" stroke-width="1" opacity="0.6"/>
  <line x1="16" y1="16" x2="22" y2="20" stroke="#ffff00" stroke-width="1" opacity="0.6"/>
</svg>